<?xml version="1.0" standalone="no"?>
<!DOCTYPE svg PUBLIC "-//W3C//DTD SVG 20010904//EN"
 "http://www.w3.org/TR/2001/REC-SVG-20010904/DTD/svg10.dtd">
<svg version="1.0" xmlns="http://www.w3.org/2000/svg"
 width="118.000000pt" height="146.000000pt" viewBox="0 0 118.000000 146.000000"
 preserveAspectRatio="xMidYMid meet">

<g transform="translate(0.000000,146.000000) scale(0.100000,-0.100000)"
fill="#000000" stroke="none">
<path d="M709 1378 c-1 -7 0 -17 1 -23 1 -5 3 -15 3 -22 0 -7 8 -6 24 4 13 9
23 23 21 32 -4 20 -48 28 -49 9z"/>
<path d="M457 1344 c-13 -13 -7 -42 10 -48 21 -8 36 6 31 30 -3 19 -29 30 -41
18z"/>
<path d="M480 1263 c-8 -7 -35 -30 -59 -51 -58 -49 -91 -119 -91 -194 0 -32 2
-58 4 -58 2 0 29 11 60 25 124 55 278 55 402 0 31 -14 58 -25 60 -25 9 0 3
110 -8 141 -17 51 -58 104 -105 136 -24 15 -43 31 -43 34 0 13 -205 5 -220 -8z
m60 -143 c0 -25 -4 -30 -25 -30 -21 0 -25 5 -25 30 0 25 4 30 25 30 21 0 25
-5 25 -30z m165 0 c0 -20 -6 -26 -27 -28 -25 -3 -28 0 -28 28 0 28 3 31 28 28
21 -2 27 -8 27 -28z"/>
<path d="M526 979 c-33 -5 -87 -22 -121 -37 -63 -30 -135 -86 -135 -105 0 -6
17 -28 37 -49 34 -35 35 -39 21 -55 -29 -33 -58 -102 -66 -155 -13 -87 7 -175
58 -255 13 -21 12 -25 -12 -50 -21 -21 -30 -24 -41 -15 -23 20 -66 106 -82
167 -17 66 -21 73 -36 58 -32 -32 45 -208 125 -286 63 -61 169 -113 259 -127
70 -11 87 -8 87 14 0 7 -28 16 -76 23 -79 11 -186 57 -219 93 -18 20 -18 21 5
45 13 14 27 25 32 25 4 0 27 -14 50 -30 22 -17 47 -30 55 -30 28 0 11 29 -35
59 -89 57 -137 147 -137 256 1 81 27 150 77 202 30 31 34 68 5 58 -7 -3 -26 8
-41 24 l-29 30 62 40 c127 81 280 89 419 19 86 -43 92 -52 57 -88 -26 -27 -30
-28 -45 -15 -20 18 -50 20 -50 3 0 -7 16 -24 34 -38 19 -14 48 -45 65 -70 83
-123 62 -283 -52 -392 -54 -52 -56 -81 -3 -49 l33 21 29 -31 c32 -33 36 -27
-48 -80 -27 -17 -48 -35 -48 -39 0 -24 27 -18 85 20 95 62 96 63 47 113 l-42
43 26 37 c38 57 56 115 56 187 1 77 -14 129 -53 188 -16 24 -29 46 -29 50 0 3
17 23 37 44 36 37 36 38 18 58 -29 32 -108 79 -167 99 -68 24 -138 30 -212 20z"/>
<path d="M526 852 c-11 -18 19 -28 84 -27 51 0 65 3 65 15 0 12 -16 16 -72 18
-39 2 -74 -1 -77 -6z"/>
<path d="M440 815 c0 -8 7 -15 15 -15 8 0 15 7 15 15 0 8 -7 15 -15 15 -8 0
-15 -7 -15 -15z"/>
<path d="M226 793 c-12 -12 -6 -33 9 -33 8 0 15 6 15 14 0 17 -14 28 -24 19z"/>
<path d="M955 778 c-3 -8 8 -43 24 -77 55 -117 51 -256 -11 -373 -28 -52 -30
-78 -8 -78 17 0 80 146 90 210 12 81 -1 173 -37 252 -29 66 -50 89 -58 66z"/>
<path d="M177 713 c-2 -5 -12 -32 -22 -61 -17 -53 -15 -87 7 -80 12 4 49 128
42 140 -6 10 -22 10 -27 1z"/>
<path d="M444 661 c-9 -9 -3 -148 7 -186 7 -27 28 -56 62 -88 79 -74 77 -74
145 -17 77 64 94 105 90 215 l-3 79 -148 1 c-82 0 -151 -2 -153 -4z m232 -21
l54 0 0 -65 c0 -36 -7 -82 -15 -101 -14 -33 -100 -124 -117 -124 -5 0 -8 68
-8 151 0 134 2 150 16 145 9 -3 40 -6 70 -6z"/>
<path d="M670 229 c-14 -4 -42 -7 -62 -8 -41 -1 -55 -13 -35 -30 10 -7 31 -8
73 -1 32 6 60 10 62 10 6 0 1 29 -5 33 -5 2 -19 1 -33 -4z"/>
<path d="M677 104 c-9 -10 2 -24 19 -24 8 0 14 7 14 15 0 15 -21 21 -33 9z"/>
</g>
</svg>
